<svg version="1.1" xmlns="http://www.w3.org/2000/svg" xmlns:xlink="http://www.w3.org/1999/xlink" >
  <style type="text/css">
    <![CDATA[
      svg > svg:not(:target) {
      display: none;
      }
    ]]>
  </style>
  <defs>
    <g id="shape">
    <path d="M38.122 18.858A6.122 6.102 0 0 1 32 24.96a6.122 6.102 0 0 1-6.124-6.1A6.122 6.102 0 0 1 32 12.755a6.122 6.102 0 0 1 6.124 6.1H32Z"/>
    <path fill-rule="evenodd" d="M31.995.1A31.9 31.896 0 0 0 .1 32 31.9 31.896 0 0 0 32 63.892a31.9 31.896 0 0 0 31.9-31.896A31.9 31.896 0 0 0 32 .1v9.495a9.204 9.174 0 0 1 9.206 9.173H32h9.204A9.204 9.174 0 0 1 32 27.943a9.204 9.174 0 0 1-9.204-9.172 9.204 9.174 0 0 1 9.201-9.173ZM32 28.643c10.321 0 18.69 2.851 18.69 19.175h-3.02l3.019.003H32l15.67-.003c-33.56-.005-34.356-.072-34.356-.072-.002-16.267 8.365-19.103 18.685-19.104Z"/>
    <path d="M46.428 45.01H17.572c-.022-10.673 6.433-12.94 14.401-12.94 7.969 0 14.433 2.423 14.455 12.937L32 45.01Z"/>
    </g>
  </defs>
  <svg id="xlarge" width="480" height="480" viewBox="0 0 480 480">
    <use href="#shape" xlink:href="#shape" transform="scale(7.5)" fill="currentColor" />
  </svg>
  <svg id="large" width="80" height="80" viewBox="0 0 80 80">
    <use href="#shape" xlink:href="#shape" transform="scale(1.25)" fill="currentColor" />
  </svg>
  <svg id="medium" width="64" height="64" viewBox="0 0 64 64">
    <use href="#shape" xlink:href="#shape" fill="currentColor" />
  </svg>
  <svg id="small" width="48" height="48" viewBox="0 0 48 48">
    <use href="#shape" xlink:href="#shape" transform="scale(0.75)" fill="currentColor" />
  </svg>
  <svg id="xsmall" width="32" height="32" viewBox="0 0 32 32">
    <use href="#shape" xlink:href="#shape" transform="scale(0.5)" fill="currentColor" />
  </svg>
  <svg id="tiny" width="16" height="16" viewBox="0 0 16 16">
    <use href="#shape" xlink:href="#shape" transform="scale(0.25)" fill="currentColor" />
  </svg>
</svg>
