<svg version="1.1" xmlns="http://www.w3.org/2000/svg" xmlns:xlink="http://www.w3.org/1999/xlink">
  <style type="text/css">
    <![CDATA[
      svg > svg:not(:target) {
      display: none;
      }
    ]]>
  </style>
  <defs>
    <g id="logo">
      <path stroke-width=".890951" d="M38.14 18.778A6.142 6.109 0 0 1 32 24.886a6.142 6.109 0 0 1-6.142-6.108 6.142 6.109 0 0 1 6.14-6.108 6.142 6.109 0 0 1 6.143 6.107h-6.142z"/>
      <path fill-rule="evenodd" stroke-width=".990974" d="M31.994 0A32 31.93 0 0 0 0 31.934 32 31.93 0 0 0 32 63.86a32 31.93 0 0 0 31.998-31.93A32 31.93 0 0 0 32 0v9.505a9.233 9.183 0 0 1 9.233 9.182h-.162l-9.07.002h9.232A9.233 9.183 0 0 1 32 27.871a9.233 9.183 0 0 1-9.233-9.182 9.233 9.183 0 0 1 9.23-9.184Zm.003 28.573c10.354 0 18.749 2.854 18.749 19.196h-3.028l3.028.002H31.999l15.719-.002c-33.664-.005-34.464-.073-34.464-.073-.001-16.283 8.391-19.122 18.743-19.124z"/>
      <path stroke-width=".77666" d="M46.473 44.958H17.527c-.022-10.685 6.452-12.954 14.445-12.955 7.994 0 14.478 2.427 14.5 12.952L32 44.958z"/>
    </g>
  </defs>
  <svg id="large" version="1.1" xmlns="http://www.w3.org/2000/svg" xmlns:xlink="http://www.w3.org/1999/xlink" width="64" height="64" viewBox="0 0 64 64">
    <use xlink:href ="#logo" fill="black" />
  </svg>
  <svg id="medium" version="1.1" xmlns="http://www.w3.org/2000/svg" xmlns:xlink="http://www.w3.org/1999/xlink" width="48" height="48" viewBox="0 0 64 64">
    <use xlink:href ="#logo" fill="black" />
  </svg>
  <svg id="small" version="1.1" xmlns="http://www.w3.org/2000/svg" xmlns:xlink="http://www.w3.org/1999/xlink" width="32" height="32" viewBox="0 0 64 64">
    <use xlink:href ="#logo" fill="black" />
  </svg>
  <svg id="tiny" version="1.1" xmlns="http://www.w3.org/2000/svg" xmlns:xlink="http://www.w3.org/1999/xlink" width="16" height="16" viewBox="0 0 64 64">
    <use xlink:href ="#logo" fill="black" />
  </svg>
</svg>
