<?xml version="1.0" encoding="UTF-8" standalone="no"?>
<svg version="1.1" xmlns="http://www.w3.org/2000/svg" xmlns:xlink="http://www.w3.org/1999/xlink" >
  <style type="text/css">
    <![CDATA[
      svg > svg:not(:target) {
      display: none;
      }
    ]]>
  </style>
  <defs>
    <g id="shape">
    <path fill-rule="evenodd" clip-rule="evenodd" d="M32.027.1C14.37.1.1 14.725.1 32.817c0 14.461 9.144 26.703 21.83 31.036 1.586.325 2.167-.704 2.167-1.57 0-.76-.053-3.358-.053-6.068-8.88 1.95-10.73-3.899-10.73-3.899-1.428-3.792-3.542-4.767-3.542-4.767-2.906-2.004.211-2.004.211-2.004 3.225.218 4.916 3.358 4.916 3.358 2.854 4.983 7.455 3.576 9.304 2.71.264-2.113 1.11-3.576 2.008-4.389-7.082-.757-14.535-3.574-14.535-16.14 0-3.576 1.268-6.502 3.277-8.776-.317-.811-1.428-4.17.317-8.666 0 0 2.696-.866 8.774 3.358a30.696 31.222 0 0 1 7.982-1.084c2.696 0 5.444.38 7.981 1.084 6.08-4.224 8.775-3.358 8.775-3.358 1.746 4.496.634 7.855.317 8.666 2.062 2.276 3.278 5.2 3.278 8.775 0 12.567-7.452 15.329-14.59 16.141 1.163 1.03 2.168 2.98 2.168 6.067 0 4.387-.054 7.908-.054 8.992 0 .866.583 1.895 2.168 1.571C54.755 59.52 63.9 47.28 63.9 32.817 63.956 14.725 49.63.1 32.028.1Z"/>
    </g>
  </defs>
  <svg id="xlarge" width="480" height="480" viewBox="0 0 480 480" >
    <use href="#shape" xlink:href="#shape" transform="scale(7.5)" fill="currentColor" />
  </svg>
  <svg id="large" width="80" height="80" viewBox="0 0 80 80" >
    <use href="#shape" xlink:href="#shape" transform="scale(1.25)" fill="currentColor" />
  </svg>
  <svg id="medium" width="64" height="64" viewBox="0 0 64 64" >
    <use href="#shape" xlink:href="#shape" fill="currentColor" />
  </svg>
  <svg id="small" width="48" height="48" viewBox="0 0 48 48" >
    <use href="#shape" xlink:href="#shape" transform="scale(0.75)" fill="currentColor" />
  </svg>
  <svg id="xsmall" width="32" height="32" viewBox="0 0 32 32" >
    <use href="#shape" xlink:href="#shape" transform="scale(0.5)" fill="currentColor" />
  </svg>
  <svg id="tiny" width="16" height="16" viewBox="0 0 16 16" >
    <use href="#shape" xlink:href="#shape" transform="scale(0.25)" fill="currentColor" />
  </svg>
</svg>
