<?xml version="1.0" encoding="UTF-8" standalone="no"?>
<svg version="1.1" xmlns="http://www.w3.org/2000/svg" width="24" height="24" >
  <path
    transform="scale(2)" 
    fill="#24292f"
    fill-rule="evenodd"
    stroke-width="0.123967"
    clip-rule="evenodd"
    d="M 6.0049646,0 C 2.6843743,0 0,2.7505494 0,6.1533537 0,8.8733971 1.7199711,11.175857 4.1060271,11.99077 c 0.2983185,0.06127 0.407591,-0.132401 0.407591,-0.295309 0,-0.142654 -0.00983,-0.631627 -0.00983,-1.141104 C 2.8333479,10.921182 2.485494,9.8208363 2.485494,9.8208363 2.2170442,9.1076939 1.8192864,8.9244072 1.8192864,8.9244072 1.2725536,8.5474571 1.8591115,8.5474571 1.8591115,8.5474571 2.4655817,8.5882155 2.7838127,9.1790832 2.7838127,9.1790832 3.320589,10.116271 4.1855529,9.8514679 4.5335295,9.6884354 4.5831877,9.2911056 4.7423647,9.0160506 4.911375,8.8632699 3.5790825,8.7206166 2.1773424,8.190886 2.1773424,5.8272889 c 0,-0.6723845 0.238458,-1.2224944 0.6163035,-1.6503296 -0.059615,-0.1527805 -0.2684499,-0.7845318 0.059737,-1.6300756 0,0 0.5070306,-0.1630326 1.6502775,0.631626 A 5.7733897,5.8724226 0 0 1 6.0049633,2.9747191 c 0.5070308,0 1.0238949,0.071389 1.5011798,0.2037906 1.1433695,-0.7946586 1.6504003,-0.631626 1.6504003,-0.631626 0.3281872,0.8455438 0.119229,1.4772951 0.059615,1.6300756 0.3878016,0.4278352 0.6164264,0.9779451 0.6164264,1.6503296 0,2.3635971 -1.4017403,2.8830756 -2.7439888,3.035981 0.2187915,0.193539 0.4075914,0.5602371 0.4075914,1.1409791 0,0.825164 -0.00983,1.487421 -0.00983,1.691087 0,0.163033 0.109396,0.356696 0.4075913,0.295559 C 10.280002,11.175733 11.999973,8.8733971 11.999973,6.1533537 12.009806,2.7505494 9.3155989,0 6.0049646,0 Z" />
</svg>
