<svg version="1.1" xmlns="http://www.w3.org/2000/svg" xmlns:xlink="http://www.w3.org/1999/xlink">
  <style type="text/css">
    <![CDATA[
      svg > svg:not(:target) {
      display: none;
      }
    ]]>
  </style>
  <defs>
    <g id="logo">
      <path fill="#24292f" fill-rule="evenodd" stroke-width="0.655555" clip-rule="evenodd" d="M 32.026478,0.5 C 14.316663,0.5 0,14.922208 0,32.764444 c 0,14.262252 9.1731794,26.334951 21.898811,30.607858 1.591032,0.321222 2.173819,-0.694233 2.173819,-1.54842 0,-0.747989 -0.05245,-3.311864 -0.05245,-5.98325 -8.908991,1.923398 -10.764212,-3.846141 -10.764212,-3.846141 -1.431732,-3.739285 -3.5531072,-4.700329 -3.5531072,-4.700329 -2.915908,-1.976497 0.2124006,-1.976497 0.2124006,-1.976497 3.2345076,0.213711 4.9317396,3.311863 4.9317396,3.311863 2.862807,4.914039 7.475948,3.525575 9.331823,2.670732 0.264844,-2.083355 1.113788,-3.525575 2.015176,-4.326664 -7.10556,-0.747988 -14.581507,-3.525573 -14.581507,-15.918838 0,-3.525575 1.271776,-6.410017 3.286952,-8.653325 -0.317945,-0.801088 -1.431733,-4.113607 0.318599,-8.547124 0,0 2.704163,-0.854844 8.80148,3.311862 a 30.791412,30.791412 0 0 1 8.006947,-1.068554 c 2.704164,0 5.460773,0.374322 8.006292,1.068554 6.097971,-4.166706 8.802135,-3.311862 8.802135,-3.311862 1.750332,4.433517 0.635888,7.746036 0.317945,8.547124 2.068275,2.243308 3.287607,5.12775 3.287607,8.653325 0,12.393265 -7.475948,15.117095 -14.634607,15.918838 1.166888,1.0148 2.173821,2.937542 2.173821,5.982594 0,4.326663 -0.05245,7.799136 -0.05245,8.867036 0,0.854843 0.583445,1.870298 2.17382,1.549732 C 54.826677,59.098739 63.999857,47.026696 63.999857,32.764444 64.0523,14.922208 49.683194,0.5 32.026478,0.5 Z"
    </g>
  </defs>
  <svg id="large" version="1.1" xmlns="http://www.w3.org/2000/svg" xmlns:xlink="http://www.w3.org/1999/xlink" width="64" height="64" viewBox="0 0 64 64">
    <use xlink:href ="#logo" />
  </svg>
  <svg id="medium" version="1.1" xmlns="http://www.w3.org/2000/svg" xmlns:xlink="http://www.w3.org/1999/xlink" width="48" height="48" viewBox="0 0 64 64">
    <use xlink:href ="#logo" />
  </svg>
  <svg id="small" version="1.1" xmlns="http://www.w3.org/2000/svg" xmlns:xlink="http://www.w3.org/1999/xlink" width="32" height="32" viewBox="0 0 64 64">
    <use xlink:href ="#logo" />
  </svg>
  <svg id="tiny" version="1.1" xmlns="http://www.w3.org/2000/svg" xmlns:xlink="http://www.w3.org/1999/xlink" width="16" height="16" viewBox="0 0 64 64">
    <use xlink:href ="#logo" />
  </svg>
</svg>
